PathFileType	4	(x/y/z)	S06_P20_T09
DataRate	CameraRate	NumFrames	NumMarkers	Units	OrigDataRate	OrigDataStartFrame	OrigNumFrames
240	240	4	51	mm	240	125	332
Frame#	Time	Sternum			R.Acromium			L.Acromium			Top.Head			R.ASIS			L.ASIS			R.PSIS			L.PSIS			R.Great.Tro			L.Great.Tro			R.Iliac.Crest			L.Iliac.Crest			V.Sacral			R.Thigh.Upper.Post			R.Thigh.Lower.Ant			R.Thigh.Lower.Post			R.Thigh.Upper.Ant			R.Knee.Lat			R.Knee.Med			R.Shank.Upper.Post			R.Shank.Lower.Ant			R.Shank.Lower.Post			R.Shank.Upper.Ant			R.Ankle.Lat			R.Ankle.Med			R.Heel.Upper			R.Heel.Med			R.Heel.Lat			R.Toe.Lat			R.Toe.Med			R.Toe.Tip			L.Thigh.Upper.Post			L.Thigh.Lower.Ant			L.Thigh.Lower.Post			L.Thigh.Upper.Ant			L.Knee.Lat			L.Knee.Med			L.Shank.Upper.Post			L.Shank.Lower.Ant			L.Shank.Lower.Post			L.Shank.Upper.Ant			L.Ankle.Lat			L.Ankle.Med			L.Heel.Upper			L.Heel.Med			L.Heel.Lat			L.Toe.Lat			L.Toe.Med			L.Toe.Tip			Cervical.Spine			Back			
		X1	Y1	Z1	X2	Y2	Z2	X3	Y3	Z3	X4	Y4	Z4	X5	Y5	Z5	X6	Y6	Z6	X7	Y7	Z7	X8	Y8	Z8	X9	Y9	Z9	X10	Y10	Z10	X11	Y11	Z11	X12	Y12	Z12	X13	Y13	Z13	X14	Y14	Z14	X15	Y15	Z15	X16	Y16	Z16	X17	Y17	Z17	X18	Y18	Z18	X19	Y19	Z19	X20	Y20	Z20	X21	Y21	Z21	X22	Y22	Z22	X23	Y23	Z23	X24	Y24	Z24	X25	Y25	Z25	X26	Y26	Z26	X27	Y27	Z27	X28	Y28	Z28	X29	Y29	Z29	X30	Y30	Z30	X31	Y31	Z31	X32	Y32	Z32	X33	Y33	Z33	X34	Y34	Z34	X35	Y35	Z35	X36	Y36	Z36	X37	Y37	Z37	X38	Y38	Z38	X39	Y39	Z39	X40	Y40	Z40	X41	Y41	Z41	X42	Y42	Z42	X43	Y43	Z43	X44	Y44	Z44	X45	Y45	Z45	X46	Y46	Z46	X47	Y47	Z47	X48	Y48	Z48	X49	Y49	Z49	X50	Y50	Z50	X51	Y51	Z51	

125	0.51667	-614.58	1273.8	317.53	-739.57	1483	483.97	-737.77	1486.4	131.92	-672.75	1800	307.51	-673.33	1043.8	444.97	-662.89	1031.8	190.31	NaN	NaN	NaN	-869.27	1067.1	265.93	-727.18	973.33	493.56	-764.58	968.93	134.96	-762.78	1118.2	472.5	-731.55	1107.1	151.73	-881.81	1029.9	309.42	-663.45	729.41	476.49	-589.32	667.15	438.27	-653.76	643.31	451.35	-596.36	755.84	459.57	-599.06	544.59	436.5	-596.78	553.01	309.31	-605.38	313.8	430.21	-535.49	260.09	409.84	-597.75	237.41	414.22	-545.01	335.08	424.09	-539.81	109.58	388.92	-524.04	120.68	302.12	-595.49	65.51	335.57	-580.46	37.394	305.18	-582.32	34.739	369.74	-408.38	59.67	412.19	-386.95	81.87	295.71	-326.62	110.82	342.39	-727.7	704.33	145.48	-680.45	617.82	195.23	-750.82	617.26	159.11	-661.94	710.07	176.88	-789.3	526.21	175.85	-748.54	520.41	291.16	-953.73	366.66	193.52	-938.81	279.33	193.84	-1000.1	312.26	212.8	-896	335.48	180.15	-1049.1	169.4	215.48	-1034.9	173.78	304.32	-1131.2	177.92	260.19	-1141	156.74	295.16	-1140	151.25	233.61	-997.13	50.378	204.69	-980.51	54.758	323.83	-913.38	39.12	274.98	-792.6	1537.9	307.2	-855.68	1266.7	304.49
126	0.52083	-608.84	1274	317.85	-733.88	1483.1	484.41	-732.37	1486.4	132.35	-667.01	1800	307.74	-667.32	1043.9	445.3	-657.02	1032	190.68	NaN	NaN	NaN	-863.17	1067	266.37	-721.12	973.43	493.91	-758.44	968.84	135.27	-756.67	1118.2	472.9	-725.69	1107.2	152.11	-876	1029.9	309.86	-657.36	729.4	476.84	-583.71	667.05	438.45	-648.11	643.33	451.81	-590.53	755.8	459.63	-593.68	544.39	436.74	-592.25	552.68	309.57	-601.62	313.63	430.6	-532.3	259.39	409.77	-594.69	237.19	414.58	-541.12	334.44	424.07	-538.24	109.13	388.95	-522.51	119.91	302.01	-594.67	66.001	335.66	-580.17	37.614	305.24	-581.98	35.016	369.79	-407.62	57.578	411.88	-385.97	79.313	295.37	-325.11	107.42	341.88	-718.73	704.07	144.59	-670.46	617.9	193.95	-740.92	616.72	157.98	-652.99	710.41	175.97	-778.71	525.65	174.6	-737.38	519.46	289.81	-944.9	368.84	192.34	-931.47	281.24	192.65	-992.11	315.2	211.63	-887.67	336.76	178.97	-1043.1	173.03	214.24	-1029	177.45	303.09	-1124.6	184.58	258.83	-1135.2	164.06	293.97	-1134.3	158.11	232.43	-995.27	51.974	204.31	-978.72	56.538	323.31	-912.53	38.783	274.81	-787.07	1537.8	307.65	-849.89	1266.6	304.99
127	0.525	-603.1	1274.2	318.14	-728.17	1483.2	484.85	-726.99	1486.4	132.77	-661.29	1799.9	307.97	-661.35	1044.1	445.6	-651.2	1032.2	191.03	NaN	NaN	NaN	-857.09	1066.9	266.79	-715.08	973.57	494.26	-752.33	968.73	135.57	-750.56	1118.3	473.29	-719.88	1107.3	152.47	-870.25	1029.8	310.29	-651.35	729.45	477.23	-578.13	667	438.64	-642.47	643.4	452.33	-584.72	755.8	459.7	-588.34	544.22	437.01	-587.79	552.35	309.87	-597.94	313.48	431.04	-529.18	258.72	409.74	-591.71	237	414.97	-537.31	333.83	424.1	-536.75	108.72	389	-521.02	119.22	301.94	-593.88	66.479	335.75	-579.87	37.856	305.3	-581.65	35.289	369.85	-406.93	55.572	411.64	-385.03	76.879	295.1	-323.67	104.13	341.47	-709.65	703.84	143.71	-660.36	618.04	192.69	-730.88	616.2	156.85	-643.96	710.8	175.09	-767.91	525.1	173.33	-726.05	518.55	288.49	-935.76	371.04	191.1	-923.8	283.19	191.47	-983.79	318.19	210.4	-879.03	338.08	177.81	-1036.7	176.79	212.97	-1022.8	181.23	301.85	-1117.5	191.4	257.41	-1129	171.53	292.67	-1128.2	165.16	231.15	-993.13	53.814	203.87	-976.68	58.502	322.72	-911.47	38.465	274.59	-781.54	1537.8	308.11	-844.12	1266.6	305.49
128	0.52917	-597.38	1274.4	318.4	-722.43	1483.3	485.28	-721.63	1486.4	133.18	-655.59	1799.9	308.21	-655.42	1044.2	445.89	-645.42	1032.3	191.35	NaN	NaN	NaN	-851.04	1066.8	267.21	-709.07	973.77	494.61	-746.25	968.6	135.87	-744.46	1118.4	473.65	-714.12	1107.4	152.81	-864.56	1029.9	310.73	-645.41	729.55	477.65	-572.57	667.01	438.87	-636.84	643.5	452.9	-578.94	755.86	459.78	-583.06	544.06	437.31	-583.37	552.05	310.21	-594.34	313.35	431.5	-526.14	258.08	409.76	-588.79	236.84	415.39	-533.59	333.25	424.18	-535.34	108.35	389.07	-519.57	118.59	301.9	-593.13	66.941	335.86	-579.58	38.112	305.38	-581.33	35.556	369.92	-406.29	53.663	411.46	-384.13	74.574	294.89	-322.31	100.97	341.14	-700.47	703.63	142.82	-650.16	618.25	191.49	-720.71	615.72	155.73	-634.85	711.25	174.24	-756.9	524.57	172.08	-714.58	517.7	287.23	-926.32	373.26	189.82	-915.79	285.19	190.29	-975.16	321.21	209.11	-870.09	339.42	176.68	-1030	180.66	211.68	-1016.4	185.12	300.59	-1110.1	198.33	255.91	-1122.4	179.12	291.27	-1121.7	172.37	229.77	-990.7	55.906	203.35	-974.37	60.655	322.05	-910.17	38.179	274.3	-776.01	1537.8	308.57	-838.35	1266.5	306.01
